<svg xmlns="http://www.w3.org/2000/svg" xmlns:xlink="http://www.w3.org/1999/xlink" width="300" zoomAndPan="magnify" viewBox="0 0 224.87999 56.249996" height="75" preserveAspectRatio="xMidYMid meet" version="1.0"><defs><g/></defs><g fill="#ffffff" fill-opacity="1"><g transform="translate(45.380271, 35.869386)"><g><path d="M 1.8125 -15.109375 L 7.984375 -15.109375 C 8.890625 -15.109375 9.695312 -14.984375 10.40625 -14.734375 C 11.125 -14.484375 11.734375 -14.128906 12.234375 -13.671875 C 12.734375 -13.210938 13.113281 -12.660156 13.375 -12.015625 C 13.644531 -11.378906 13.78125 -10.671875 13.78125 -9.890625 L 13.78125 -9.84375 C 13.78125 -8.96875 13.617188 -8.195312 13.296875 -7.53125 C 12.984375 -6.875 12.546875 -6.320312 11.984375 -5.875 C 11.429688 -5.425781 10.785156 -5.085938 10.046875 -4.859375 C 9.304688 -4.640625 8.515625 -4.53125 7.671875 -4.53125 L 5.140625 -4.53125 L 5.140625 0 L 1.8125 0 Z M 7.78125 -7.5 C 8.613281 -7.5 9.257812 -7.71875 9.71875 -8.15625 C 10.175781 -8.59375 10.40625 -9.132812 10.40625 -9.78125 L 10.40625 -9.828125 C 10.40625 -10.578125 10.164062 -11.144531 9.6875 -11.53125 C 9.207031 -11.914062 8.546875 -12.109375 7.703125 -12.109375 L 5.140625 -12.109375 L 5.140625 -7.5 Z M 7.78125 -7.5 "/></g></g></g><g fill="#ffffff" fill-opacity="1"><g transform="translate(60.657401, 35.869386)"><g><path d="M 1.8125 -15.109375 L 5.140625 -15.109375 L 5.140625 -3.015625 L 12.671875 -3.015625 L 12.671875 0 L 1.8125 0 Z M 1.8125 -15.109375 "/></g></g></g><g fill="#ffffff" fill-opacity="1"><g transform="translate(74.877238, 35.869386)"><g><path d="M 7 -15.21875 L 10.0625 -15.21875 L 16.546875 0 L 13.0625 0 L 11.6875 -3.390625 L 5.296875 -3.390625 L 3.90625 0 L 0.515625 0 Z M 10.5 -6.328125 L 8.484375 -11.234375 L 6.484375 -6.328125 Z M 10.5 -6.328125 "/></g></g></g><g fill="#ffffff" fill-opacity="1"><g transform="translate(92.786786, 35.869386)"><g><path d="M 6.0625 -5.953125 L 0.265625 -15.109375 L 4.140625 -15.109375 L 7.75 -9.046875 L 11.421875 -15.109375 L 15.203125 -15.109375 L 9.390625 -6.03125 L 9.390625 0 L 6.0625 0 Z M 6.0625 -5.953125 "/></g></g></g><g fill="#ffffff" fill-opacity="1"><g transform="translate(109.099614, 35.869386)"><g><path d="M 1.8125 -15.109375 L 5.40625 -15.109375 L 9.375 -8.71875 L 13.34375 -15.109375 L 16.921875 -15.109375 L 16.921875 0 L 13.625 0 L 13.625 -9.875 L 9.375 -3.40625 L 9.28125 -3.40625 L 5.078125 -9.796875 L 5.078125 0 L 1.8125 0 Z M 1.8125 -15.109375 "/></g></g></g><g fill="#ffffff" fill-opacity="1"><g transform="translate(128.692187, 35.869386)"><g><path d="M 9.15625 0.265625 C 7.988281 0.265625 6.914062 0.0625 5.9375 -0.34375 C 4.957031 -0.757812 4.109375 -1.316406 3.390625 -2.015625 C 2.679688 -2.710938 2.128906 -3.53125 1.734375 -4.46875 C 1.335938 -5.414062 1.140625 -6.429688 1.140625 -7.515625 L 1.140625 -7.5625 C 1.140625 -8.632812 1.34375 -9.640625 1.75 -10.578125 C 2.15625 -11.523438 2.710938 -12.351562 3.421875 -13.0625 C 4.128906 -13.78125 4.976562 -14.34375 5.96875 -14.75 C 6.957031 -15.164062 8.035156 -15.375 9.203125 -15.375 C 10.367188 -15.375 11.441406 -15.164062 12.421875 -14.75 C 13.398438 -14.34375 14.242188 -13.789062 14.953125 -13.09375 C 15.660156 -12.394531 16.210938 -11.570312 16.609375 -10.625 C 17.003906 -9.6875 17.203125 -8.675781 17.203125 -7.59375 L 17.203125 -7.5625 C 17.203125 -6.476562 17 -5.460938 16.59375 -4.515625 C 16.195312 -3.578125 15.640625 -2.75 14.921875 -2.03125 C 14.210938 -1.320312 13.363281 -0.757812 12.375 -0.34375 C 11.394531 0.0625 10.320312 0.265625 9.15625 0.265625 Z M 9.203125 -2.8125 C 9.859375 -2.8125 10.46875 -2.929688 11.03125 -3.171875 C 11.59375 -3.421875 12.070312 -3.757812 12.46875 -4.1875 C 12.863281 -4.625 13.171875 -5.125 13.390625 -5.6875 C 13.617188 -6.257812 13.734375 -6.867188 13.734375 -7.515625 L 13.734375 -7.5625 C 13.734375 -8.207031 13.617188 -8.816406 13.390625 -9.390625 C 13.171875 -9.960938 12.851562 -10.460938 12.4375 -10.890625 C 12.03125 -11.328125 11.546875 -11.671875 10.984375 -11.921875 C 10.429688 -12.179688 9.820312 -12.3125 9.15625 -12.3125 C 8.476562 -12.3125 7.863281 -12.1875 7.3125 -11.9375 C 6.757812 -11.695312 6.285156 -11.359375 5.890625 -10.921875 C 5.492188 -10.492188 5.179688 -9.992188 4.953125 -9.421875 C 4.734375 -8.859375 4.625 -8.25 4.625 -7.59375 L 4.625 -7.5625 C 4.625 -6.914062 4.734375 -6.300781 4.953125 -5.71875 C 5.179688 -5.144531 5.5 -4.640625 5.90625 -4.203125 C 6.3125 -3.773438 6.789062 -3.4375 7.34375 -3.1875 C 7.90625 -2.9375 8.523438 -2.8125 9.203125 -2.8125 Z M 9.203125 -2.8125 "/></g></g></g><g fill="#ffffff" fill-opacity="1"><g transform="translate(147.896383, 35.869386)"><g><path d="M 9.15625 0.265625 C 7.988281 0.265625 6.914062 0.0625 5.9375 -0.34375 C 4.957031 -0.757812 4.109375 -1.316406 3.390625 -2.015625 C 2.679688 -2.710938 2.128906 -3.53125 1.734375 -4.46875 C 1.335938 -5.414062 1.140625 -6.429688 1.140625 -7.515625 L 1.140625 -7.5625 C 1.140625 -8.632812 1.34375 -9.640625 1.75 -10.578125 C 2.15625 -11.523438 2.710938 -12.351562 3.421875 -13.0625 C 4.128906 -13.78125 4.976562 -14.34375 5.96875 -14.75 C 6.957031 -15.164062 8.035156 -15.375 9.203125 -15.375 C 10.367188 -15.375 11.441406 -15.164062 12.421875 -14.75 C 13.398438 -14.34375 14.242188 -13.789062 14.953125 -13.09375 C 15.660156 -12.394531 16.210938 -11.570312 16.609375 -10.625 C 17.003906 -9.6875 17.203125 -8.675781 17.203125 -7.59375 L 17.203125 -7.5625 C 17.203125 -6.476562 17 -5.460938 16.59375 -4.515625 C 16.195312 -3.578125 15.640625 -2.75 14.921875 -2.03125 C 14.210938 -1.320312 13.363281 -0.757812 12.375 -0.34375 C 11.394531 0.0625 10.320312 0.265625 9.15625 0.265625 Z M 9.203125 -2.8125 C 9.859375 -2.8125 10.46875 -2.929688 11.03125 -3.171875 C 11.59375 -3.421875 12.070312 -3.757812 12.46875 -4.1875 C 12.863281 -4.625 13.171875 -5.125 13.390625 -5.6875 C 13.617188 -6.257812 13.734375 -6.867188 13.734375 -7.515625 L 13.734375 -7.5625 C 13.734375 -8.207031 13.617188 -8.816406 13.390625 -9.390625 C 13.171875 -9.960938 12.851562 -10.460938 12.4375 -10.890625 C 12.03125 -11.328125 11.546875 -11.671875 10.984375 -11.921875 C 10.429688 -12.179688 9.820312 -12.3125 9.15625 -12.3125 C 8.476562 -12.3125 7.863281 -12.1875 7.3125 -11.9375 C 6.757812 -11.695312 6.285156 -11.359375 5.890625 -10.921875 C 5.492188 -10.492188 5.179688 -9.992188 4.953125 -9.421875 C 4.734375 -8.859375 4.625 -8.25 4.625 -7.59375 L 4.625 -7.5625 C 4.625 -6.914062 4.734375 -6.300781 4.953125 -5.71875 C 5.179688 -5.144531 5.5 -4.640625 5.90625 -4.203125 C 6.3125 -3.773438 6.789062 -3.4375 7.34375 -3.1875 C 7.90625 -2.9375 8.523438 -2.8125 9.203125 -2.8125 Z M 9.203125 -2.8125 "/></g></g></g><g fill="#ffffff" fill-opacity="1"><g transform="translate(167.100573, 35.869386)"><g><path d="M 1.8125 -15.109375 L 7.703125 -15.109375 C 8.890625 -15.109375 9.972656 -14.914062 10.953125 -14.53125 C 11.941406 -14.15625 12.789062 -13.628906 13.5 -12.953125 C 14.21875 -12.273438 14.769531 -11.476562 15.15625 -10.5625 C 15.539062 -9.65625 15.734375 -8.664062 15.734375 -7.59375 L 15.734375 -7.5625 C 15.734375 -6.488281 15.539062 -5.492188 15.15625 -4.578125 C 14.769531 -3.660156 14.21875 -2.863281 13.5 -2.1875 C 12.789062 -1.507812 11.941406 -0.972656 10.953125 -0.578125 C 9.972656 -0.191406 8.890625 0 7.703125 0 L 1.8125 0 Z M 5.140625 -12.109375 L 5.140625 -3 L 7.703125 -3 C 8.378906 -3 9 -3.109375 9.5625 -3.328125 C 10.125 -3.546875 10.601562 -3.851562 11 -4.25 C 11.394531 -4.65625 11.703125 -5.128906 11.921875 -5.671875 C 12.148438 -6.222656 12.265625 -6.835938 12.265625 -7.515625 L 12.265625 -7.5625 C 12.265625 -8.21875 12.148438 -8.828125 11.921875 -9.390625 C 11.703125 -9.953125 11.394531 -10.429688 11 -10.828125 C 10.601562 -11.234375 10.125 -11.546875 9.5625 -11.765625 C 9 -11.992188 8.378906 -12.109375 7.703125 -12.109375 Z M 5.140625 -12.109375 "/></g></g></g><g fill="#ffffff" fill-opacity="1"><g transform="translate(184.837506, 35.869386)"><g><path d="M 1.34375 -3.453125 L 4.84375 -3.453125 L 4.84375 0 L 1.34375 0 Z M 1.34375 -3.453125 "/></g></g></g><g fill="#ffffff" fill-opacity="1"><g transform="translate(191.872117, 35.869386)"><g><path d="M 7 -15.21875 L 10.0625 -15.21875 L 16.546875 0 L 13.0625 0 L 11.6875 -3.390625 L 5.296875 -3.390625 L 3.90625 0 L 0.515625 0 Z M 10.5 -6.328125 L 8.484375 -11.234375 L 6.484375 -6.328125 Z M 10.5 -6.328125 "/></g></g></g><g fill="#ffffff" fill-opacity="1"><g transform="translate(209.781662, 35.869386)"><g><path d="M 1.96875 -15.109375 L 5.296875 -15.109375 L 5.296875 0 L 1.96875 0 Z M 1.96875 -15.109375 "/></g></g></g><path fill="#8ff12d" d="M 22.882812 25.675781 C 20.90625 25.675781 19.308594 27.273438 19.308594 29.25 C 19.308594 31.226562 20.90625 32.828125 22.882812 32.828125 C 24.859375 32.828125 26.460938 31.226562 26.460938 29.25 C 26.460938 27.273438 24.859375 25.675781 22.882812 25.675781 Z M 33.617188 29.25 C 33.617188 23.320312 28.8125 18.519531 22.882812 18.519531 C 16.953125 18.519531 12.152344 23.320312 12.152344 29.25 C 12.152344 33.222656 14.308594 36.675781 17.507812 38.535156 L 19.316406 35.421875 C 17.179688 34.179688 15.730469 31.898438 15.730469 29.25 C 15.730469 25.296875 18.929688 22.097656 22.882812 22.097656 C 26.835938 22.097656 30.039062 25.296875 30.039062 29.25 C 30.039062 31.898438 28.589844 34.179688 26.453125 35.414062 L 28.257812 38.527344 C 31.460938 36.675781 33.617188 33.222656 33.617188 29.25 Z M 22.882812 11.363281 C 13 11.363281 4.996094 19.371094 4.996094 29.25 C 4.996094 35.859375 8.59375 41.621094 13.933594 44.714844 L 15.71875 41.621094 C 11.453125 39.152344 8.574219 34.535156 8.574219 29.25 C 8.574219 21.34375 14.976562 14.941406 22.882812 14.941406 C 30.789062 14.941406 37.191406 21.34375 37.191406 29.25 C 37.191406 34.535156 34.3125 39.152344 30.046875 41.628906 L 31.835938 44.722656 C 37.175781 41.621094 40.769531 35.859375 40.769531 29.25 C 40.769531 19.371094 32.757812 11.363281 22.882812 11.363281 Z M 22.882812 11.363281 " fill-opacity="1" fill-rule="nonzero"/></svg>